<svg width="51" height="50" viewBox="0 0 51 50" fill="none" xmlns="http://www.w3.org/2000/svg">
<path d="M17.1292 19.4766C23.8066 16.4014 29.0325 11.1827 32.0325 4.65948C30.097 2.7025 27.5809 1.30465 24.8712 0.465948L23.4195 0C23.3228 0.186379 23.226 0.465959 23.226 0.652338C20.9034 6.98923 16.1614 12.1146 9.77428 15.0035C5.32263 17.0537 2.03227 20.7813 0.483875 25.2544L0 26.6522C0.19355 26.7454 0.483879 26.8386 0.677429 26.8386C2.51615 27.4909 4.35488 28.3296 6.09683 29.3547C8.5162 25.1612 12.3872 21.62 17.1292 19.4766Z" fill="#4362B5"/>
<path d="M45.1936 19.8503C41.6129 25.069 36.6774 29.2625 30.5806 32.0582C25.6451 34.2947 21.8708 38.4883 20.1289 43.5205L19.645 45.1047C21.4837 46.6889 23.7096 47.9004 26.1289 48.6459L27.5806 49.1119C27.6773 48.9255 27.7741 48.6459 27.7741 48.4595C30.0967 42.1227 34.8387 36.9972 41.2258 34.1084C45.6775 32.0582 49.0646 28.3306 50.5162 23.8575L51.0001 22.4597C48.9678 21.9005 47.0323 20.9686 45.1936 19.8503Z" fill="#4362B5"/>
<path d="M15.7778 40.2608C18.1972 34.6695 22.6488 30.1032 28.3585 27.4938C33.5844 25.0709 37.9393 21.3433 40.9393 16.777C38.7135 14.7269 36.8747 12.3971 35.5199 9.60144C31.9392 15.9383 26.3263 21.0638 19.4552 24.2322C15.4875 26.0028 12.2939 29.0781 10.3584 32.8057C12.4874 34.7626 14.2294 37.1856 15.5842 39.8881C15.5842 39.8881 15.681 40.0745 15.7778 40.2608Z" fill="#4362B5"/>
</svg>
